<?xml version="1.0" encoding="utf-8" standalone="no"?><!DOCTYPE svg PUBLIC "-//W3C//DTD SVG 20010904//EN" "http://www.w3.org/TR/2001/REC-SVG-20010904/DTD/svg10.dtd"><svg xmlns="http://www.w3.org/2000/svg" width="1004" height="1243" xmlns:xlink="http://www.w3.org/1999/xlink"><source><![CDATA[Created with Raphaël 2.1.2获得分组M, 和变量a, b, c, d分组M分成16个子分组N[16]每个分组4个字节atemp = a, btemp = bctemp = c, dtemp = d子分组计数j = 0j < 64j < 16 ?fun = F(b, c, d)index = ja = (a + fun + k[j] + N[index]) << s[j]a, b, c, d 向右轮换j < 32 ?fun = G(b, c, d)index = (1+5*j)%16j < 48 ?fun = H(b, c, d)index = (5+3*j)%16fun = I(b, c, d)index = (7*j)%16a += atemp, b += btempc += ctemp, d += dtemp返回新的a, b, c, dyesnoyesnoyesnoyesno]]></source><desc style="-webkit-tap-highlight-color: rgba(0, 0, 0, 0);">Created with Raphaël 2.1.2</desc><defs style="-webkit-tap-highlight-color: rgba(0, 0, 0, 0);"></defs><rect class="flowchart" id="st" style="-webkit-tap-highlight-color: rgba(0, 0, 0, 0);" fill="#ffffff" stroke="#000000" stroke-width="2" transform="matrix(1 0 0 1 29.885 15.1725)" x="0" y="0" width="203.38" height="37.37" rx="20" ry="20" r="20"></rect><text class="flowchartt" id="stt" font-size="15px" style="font: 15px &quot;Arial&quot;; font-size-adjust: none; font-stretch: normal; text-anchor: start; -webkit-tap-highlight-color: rgba(0, 0, 0, 0);" fill="#000000" stroke="none" text-anchor="start" transform="matrix(1 0 0 1 29.885 15.1725)" x="10" y="18.685" font="10px &quot;Arial&quot;"><tspan style="-webkit-tap-highlight-color: rgba(0, 0, 0, 0);" dy="5.26">获得分组M, 和变量a, b, c, d</tspan></text><rect class="flowchart" id="op0" style="-webkit-tap-highlight-color: rgba(0, 0, 0, 0);" fill="#ffffff" stroke="#000000" stroke-width="2" transform="matrix(1 0 0 1 29.06 108.715)" x="0" y="0" width="205.03" height="55.37" rx="0" ry="0" r="0"></rect><text class="flowchartt" id="op0t" font-size="15px" style="font: 15px &quot;Arial&quot;; font-size-adjust: none; font-stretch: normal; text-anchor: start; -webkit-tap-highlight-color: rgba(0, 0, 0, 0);" fill="#000000" stroke="none" text-anchor="start" transform="matrix(1 0 0 1 29.06 108.715)" x="10" y="27.685" font="10px &quot;Arial&quot;"><tspan style="-webkit-tap-highlight-color: rgba(0, 0, 0, 0);" dy="-3.7399">分组M分成16个子分组N[16]</tspan><tspan style="-webkit-tap-highlight-color: rgba(0, 0, 0, 0);" x="10" dy="18">每个分组4个字节</tspan></text><rect class="flowchart" id="op1" style="-webkit-tap-highlight-color: rgba(0, 0, 0, 0);" fill="#ffffff" stroke="#000000" stroke-width="2" transform="matrix(1 0 0 1 50.275 220.318)" x="0" y="0" width="162.6" height="55.25" rx="0" ry="0" r="0"></rect><text class="flowchartt" id="op1t" font-size="15px" style="font: 15px &quot;Arial&quot;; font-size-adjust: none; font-stretch: normal; text-anchor: start; -webkit-tap-highlight-color: rgba(0, 0, 0, 0);" fill="#000000" stroke="none" text-anchor="start" transform="matrix(1 0 0 1 50.275 220.318)" x="10" y="27.625" font="10px &quot;Arial&quot;"><tspan style="-webkit-tap-highlight-color: rgba(0, 0, 0, 0);" dy="-3.7999">atemp = a, btemp = b</tspan><tspan style="-webkit-tap-highlight-color: rgba(0, 0, 0, 0);" x="10" dy="18">ctemp = c, dtemp = d</tspan></text><rect class="flowchart" id="op3" style="-webkit-tap-highlight-color: rgba(0, 0, 0, 0);" fill="#ffffff" stroke="#000000" stroke-width="2" transform="matrix(1 0 0 1 69.69 340.74)" x="0" y="0" width="123.77" height="37.37" rx="0" ry="0" r="0"></rect><text class="flowchartt" id="op3t" font-size="15px" style="font: 15px &quot;Arial&quot;; font-size-adjust: none; font-stretch: normal; text-anchor: start; -webkit-tap-highlight-color: rgba(0, 0, 0, 0);" fill="#000000" stroke="none" text-anchor="start" transform="matrix(1 0 0 1 69.69 340.74)" x="10" y="18.685" font="10px &quot;Arial&quot;"><tspan style="-webkit-tap-highlight-color: rgba(0, 0, 0, 0);" dy="5.26">子分组计数j = 0</tspan></text><path class="flowchart" id="cond" style="-webkit-tap-highlight-color: rgba(0, 0, 0, 0);" fill="#ffffff" stroke="#000000" stroke-width="2" transform="matrix(1 0 0 1 81.2425 434.03)" d="M 25.1663 13.9688 L 0 27.9375 L 50.3325 55.875 L 100.665 27.9375 L 50.3325 0 L 0 27.9375"></path><text class="flowchartt" id="condt" font-size="15px" style="font: 15px &quot;Arial&quot;; font-size-adjust: none; font-stretch: normal; text-anchor: start; -webkit-tap-highlight-color: rgba(0, 0, 0, 0);" fill="#000000" stroke="none" text-anchor="start" transform="matrix(1 0 0 1 81.2425 434.03)" x="30.1663" y="27.9375" font="10px &quot;Arial&quot;"><tspan style="-webkit-tap-highlight-color: rgba(0, 0, 0, 0);" dy="5.2025">j &lt; 64</tspan><tspan style="-webkit-tap-highlight-color: rgba(0, 0, 0, 0);" x="30.1663" dy="18"></tspan></text><path class="flowchart" id="condF" style="-webkit-tap-highlight-color: rgba(0, 0, 0, 0);" fill="#ffffff" stroke="#000000" stroke-width="2" transform="matrix(1 0 0 1 71.86 543.905)" d="M 29.8575 14.9287 L 0 29.8575 L 59.715 59.715 L 119.43 29.8575 L 59.715 0 L 0 29.8575"></path><text class="flowchartt" id="condFt" font-size="15px" style="font: 15px &quot;Arial&quot;; font-size-adjust: none; font-stretch: normal; text-anchor: start; -webkit-tap-highlight-color: rgba(0, 0, 0, 0);" fill="#000000" stroke="none" text-anchor="start" transform="matrix(1 0 0 1 71.86 543.905)" x="34.8575" y="29.8575" font="10px &quot;Arial&quot;"><tspan style="-webkit-tap-highlight-color: rgba(0, 0, 0, 0);" dy="5.2025">j &lt; 16 ?</tspan></text><rect class="flowchart" id="opF0" style="-webkit-tap-highlight-color: rgba(0, 0, 0, 0);" fill="#ffffff" stroke="#000000" stroke-width="2" transform="matrix(1 0 0 1 653.165 555.138)" x="0" y="0" width="117.97" height="37.25" rx="0" ry="0" r="0"></rect><text class="flowchartt" id="opF0t" font-size="15px" style="font: 15px &quot;Arial&quot;; font-size-adjust: none; font-stretch: normal; text-anchor: start; -webkit-tap-highlight-color: rgba(0, 0, 0, 0);" fill="#000000" stroke="none" text-anchor="start" transform="matrix(1 0 0 1 653.165 555.138)" x="10" y="18.625" font="10px &quot;Arial&quot;"><tspan style="-webkit-tap-highlight-color: rgba(0, 0, 0, 0);" dy="5.2">fun = F(b, c, d)</tspan></text><rect class="flowchart" id="opF1" style="-webkit-tap-highlight-color: rgba(0, 0, 0, 0);" fill="#ffffff" stroke="#000000" stroke-width="2" transform="matrix(1 0 0 1 674.01 657.62)" x="0" y="0" width="76.28" height="37.25" rx="0" ry="0" r="0"></rect><text class="flowchartt" id="opF1t" font-size="15px" style="font: 15px &quot;Arial&quot;; font-size-adjust: none; font-stretch: normal; text-anchor: start; -webkit-tap-highlight-color: rgba(0, 0, 0, 0);" fill="#000000" stroke="none" text-anchor="start" transform="matrix(1 0 0 1 674.01 657.62)" x="10" y="18.625" font="10px &quot;Arial&quot;"><tspan style="-webkit-tap-highlight-color: rgba(0, 0, 0, 0);" dy="5.2">index = j</tspan><tspan style="-webkit-tap-highlight-color: rgba(0, 0, 0, 0);" x="10" dy="18"></tspan></text><rect class="flowchart" id="op4" style="-webkit-tap-highlight-color: rgba(0, 0, 0, 0);" fill="#ffffff" stroke="#000000" stroke-width="2" transform="matrix(1 0 0 1 4 1101.25)" x="0" y="0" width="255.15" height="37.25" rx="0" ry="0" r="0"></rect><text class="flowchartt" id="op4t" font-size="15px" style="font: 15px &quot;Arial&quot;; font-size-adjust: none; font-stretch: normal; text-anchor: start; -webkit-tap-highlight-color: rgba(0, 0, 0, 0);" fill="#000000" stroke="none" text-anchor="start" transform="matrix(1 0 0 1 4 1101.25)" x="10" y="18.625" font="10px &quot;Arial&quot;"><tspan style="-webkit-tap-highlight-color: rgba(0, 0, 0, 0);" dy="5.2">a = (a + fun + k[j] + N[index]) &lt;&lt; s[j]</tspan></text><rect class="flowchart" id="op5" style="-webkit-tap-highlight-color: rgba(0, 0, 0, 0);" fill="#ffffff" stroke="#000000" stroke-width="2" transform="matrix(1 0 0 1 60.72 1203.67)" x="0" y="0" width="141.71" height="37.37" rx="0" ry="0" r="0"></rect><text class="flowchartt" id="op5t" font-size="15px" style="font: 15px &quot;Arial&quot;; font-size-adjust: none; font-stretch: normal; text-anchor: start; -webkit-tap-highlight-color: rgba(0, 0, 0, 0);" fill="#000000" stroke="none" text-anchor="start" transform="matrix(1 0 0 1 60.72 1203.67)" x="10" y="18.685" font="10px &quot;Arial&quot;"><tspan style="-webkit-tap-highlight-color: rgba(0, 0, 0, 0);" dy="5.26">a, b, c, d 向右轮换</tspan></text><path class="flowchart" id="condG" style="-webkit-tap-highlight-color: rgba(0, 0, 0, 0);" fill="#ffffff" stroke="#000000" stroke-width="2" transform="matrix(1 0 0 1 71.86 657.62)" d="M 29.8575 14.9287 L 0 29.8575 L 59.715 59.715 L 119.43 29.8575 L 59.715 0 L 0 29.8575"></path><text class="flowchartt" id="condGt" font-size="15px" style="font: 15px &quot;Arial&quot;; font-size-adjust: none; font-stretch: normal; text-anchor: start; -webkit-tap-highlight-color: rgba(0, 0, 0, 0);" fill="#000000" stroke="none" text-anchor="start" transform="matrix(1 0 0 1 71.86 657.62)" x="34.8575" y="29.8575" font="10px &quot;Arial&quot;"><tspan style="-webkit-tap-highlight-color: rgba(0, 0, 0, 0);" dy="5.2025">j &lt; 32 ?</tspan></text><rect class="flowchart" id="opG0" style="-webkit-tap-highlight-color: rgba(0, 0, 0, 0);" fill="#ffffff" stroke="#000000" stroke-width="2" transform="matrix(1 0 0 1 482.685 668.852)" x="0" y="0" width="120.48" height="37.25" rx="0" ry="0" r="0"></rect><text class="flowchartt" id="opG0t" font-size="15px" style="font: 15px &quot;Arial&quot;; font-size-adjust: none; font-stretch: normal; text-anchor: start; -webkit-tap-highlight-color: rgba(0, 0, 0, 0);" fill="#000000" stroke="none" text-anchor="start" transform="matrix(1 0 0 1 482.685 668.852)" x="10" y="18.625" font="10px &quot;Arial&quot;"><tspan style="-webkit-tap-highlight-color: rgba(0, 0, 0, 0);" dy="5.2">fun = G(b, c, d)</tspan></text><rect class="flowchart" id="opG1" style="-webkit-tap-highlight-color: rgba(0, 0, 0, 0);" fill="#ffffff" stroke="#000000" stroke-width="2" transform="matrix(1 0 0 1 469.135 771.335)" x="0" y="0" width="147.58" height="37.25" rx="0" ry="0" r="0"></rect><text class="flowchartt" id="opG1t" font-size="15px" style="font: 15px &quot;Arial&quot;; font-size-adjust: none; font-stretch: normal; text-anchor: start; -webkit-tap-highlight-color: rgba(0, 0, 0, 0);" fill="#000000" stroke="none" text-anchor="start" transform="matrix(1 0 0 1 469.135 771.335)" x="10" y="18.625" font="10px &quot;Arial&quot;"><tspan style="-webkit-tap-highlight-color: rgba(0, 0, 0, 0);" dy="5.2">index = (1+5*j)%16</tspan><tspan style="-webkit-tap-highlight-color: rgba(0, 0, 0, 0);" x="10" dy="18"></tspan></text><path class="flowchart" id="condH" style="-webkit-tap-highlight-color: rgba(0, 0, 0, 0);" fill="#ffffff" stroke="#000000" stroke-width="2" transform="matrix(1 0 0 1 71.86 771.335)" d="M 29.8575 14.9287 L 0 29.8575 L 59.715 59.715 L 119.43 29.8575 L 59.715 0 L 0 29.8575"></path><text class="flowchartt" id="condHt" font-size="15px" style="font: 15px &quot;Arial&quot;; font-size-adjust: none; font-stretch: normal; text-anchor: start; -webkit-tap-highlight-color: rgba(0, 0, 0, 0);" fill="#000000" stroke="none" text-anchor="start" transform="matrix(1 0 0 1 71.86 771.335)" x="34.8575" y="29.8575" font="10px &quot;Arial&quot;"><tspan style="-webkit-tap-highlight-color: rgba(0, 0, 0, 0);" dy="5.2025">j &lt; 48 ?</tspan></text><rect class="flowchart" id="opH0" style="-webkit-tap-highlight-color: rgba(0, 0, 0, 0);" fill="#ffffff" stroke="#000000" stroke-width="2" transform="matrix(1 0 0 1 313.045 782.568)" x="0" y="0" width="119.64" height="37.25" rx="0" ry="0" r="0"></rect><text class="flowchartt" id="opH0t" font-size="15px" style="font: 15px &quot;Arial&quot;; font-size-adjust: none; font-stretch: normal; text-anchor: start; -webkit-tap-highlight-color: rgba(0, 0, 0, 0);" fill="#000000" stroke="none" text-anchor="start" transform="matrix(1 0 0 1 313.045 782.568)" x="10" y="18.625" font="10px &quot;Arial&quot;"><tspan style="-webkit-tap-highlight-color: rgba(0, 0, 0, 0);" dy="5.2">fun = H(b, c, d)</tspan></text><rect class="flowchart" id="opH1" style="-webkit-tap-highlight-color: rgba(0, 0, 0, 0);" fill="#ffffff" stroke="#000000" stroke-width="2" transform="matrix(1 0 0 1 299.075 885.05)" x="0" y="0" width="147.58" height="37.25" rx="0" ry="0" r="0"></rect><text class="flowchartt" id="opH1t" font-size="15px" style="font: 15px &quot;Arial&quot;; font-size-adjust: none; font-stretch: normal; text-anchor: start; -webkit-tap-highlight-color: rgba(0, 0, 0, 0);" fill="#000000" stroke="none" text-anchor="start" transform="matrix(1 0 0 1 299.075 885.05)" x="10" y="18.625" font="10px &quot;Arial&quot;"><tspan style="-webkit-tap-highlight-color: rgba(0, 0, 0, 0);" dy="5.2">index = (5+3*j)%16</tspan><tspan style="-webkit-tap-highlight-color: rgba(0, 0, 0, 0);" x="10" dy="18"></tspan></text><rect class="flowchart" id="opI0" style="-webkit-tap-highlight-color: rgba(0, 0, 0, 0);" fill="#ffffff" stroke="#000000" stroke-width="2" transform="matrix(1 0 0 1 75.085 896.282)" x="0" y="0" width="112.98" height="37.25" rx="0" ry="0" r="0"></rect><text class="flowchartt" id="opI0t" font-size="15px" style="font: 15px &quot;Arial&quot;; font-size-adjust: none; font-stretch: normal; text-anchor: start; -webkit-tap-highlight-color: rgba(0, 0, 0, 0);" fill="#000000" stroke="none" text-anchor="start" transform="matrix(1 0 0 1 75.085 896.282)" x="10" y="18.625" font="10px &quot;Arial&quot;"><tspan style="-webkit-tap-highlight-color: rgba(0, 0, 0, 0);" dy="5.2">fun = I(b, c, d)</tspan></text><rect class="flowchart" id="opI1" style="-webkit-tap-highlight-color: rgba(0, 0, 0, 0);" fill="#ffffff" stroke="#000000" stroke-width="2" transform="matrix(1 0 0 1 66.335 998.765)" x="0" y="0" width="130.48" height="37.25" rx="0" ry="0" r="0"></rect><text class="flowchartt" id="opI1t" font-size="15px" style="font: 15px &quot;Arial&quot;; font-size-adjust: none; font-stretch: normal; text-anchor: start; -webkit-tap-highlight-color: rgba(0, 0, 0, 0);" fill="#000000" stroke="none" text-anchor="start" transform="matrix(1 0 0 1 66.335 998.765)" x="10" y="18.625" font="10px &quot;Arial&quot;"><tspan style="-webkit-tap-highlight-color: rgba(0, 0, 0, 0);" dy="5.2">index = (7*j)%16</tspan></text><rect class="flowchart" id="op2" style="-webkit-tap-highlight-color: rgba(0, 0, 0, 0);" fill="#ffffff" stroke="#000000" stroke-width="2" transform="matrix(1 0 0 1 821.135 434.342)" x="0" y="0" width="180.12" height="55.25" rx="0" ry="0" r="0"></rect><text class="flowchartt" id="op2t" font-size="15px" style="font: 15px &quot;Arial&quot;; font-size-adjust: none; font-stretch: normal; text-anchor: start; -webkit-tap-highlight-color: rgba(0, 0, 0, 0);" fill="#000000" stroke="none" text-anchor="start" transform="matrix(1 0 0 1 821.135 434.342)" x="10" y="27.625" font="10px &quot;Arial&quot;"><tspan style="-webkit-tap-highlight-color: rgba(0, 0, 0, 0);" dy="-3.7999">a += atemp, b += btemp</tspan><tspan style="-webkit-tap-highlight-color: rgba(0, 0, 0, 0);" x="10" dy="18">c += ctemp, d += dtemp</tspan><tspan style="-webkit-tap-highlight-color: rgba(0, 0, 0, 0);" x="10" dy="18"></tspan></text><rect class="flowchart" id="end" style="-webkit-tap-highlight-color: rgba(0, 0, 0, 0);" fill="#ffffff" stroke="#000000" stroke-width="2" transform="matrix(1 0 0 1 842.425 554.765)" x="0" y="0" width="137.54" height="37.37" rx="20" ry="20" r="20"></rect><text class="flowchartt" id="endt" font-size="15px" style="font: 15px &quot;Arial&quot;; font-size-adjust: none; font-stretch: normal; text-anchor: start; -webkit-tap-highlight-color: rgba(0, 0, 0, 0);" fill="#000000" stroke="none" text-anchor="start" transform="matrix(1 0 0 1 842.425 554.765)" x="10" y="18.685" font="10px &quot;Arial&quot;"><tspan style="-webkit-tap-highlight-color: rgba(0, 0, 0, 0);" dy="5.26">返回新的a, b, c, d</tspan><tspan style="-webkit-tap-highlight-color: rgba(0, 0, 0, 0);" x="10" dy="18"></tspan></text><path style="-webkit-tap-highlight-color: rgba(0, 0, 0, 0);" fill="none" marker-end="url(&quot;#raphael-marker-endblock33&quot;)" stroke="#000000" stroke-width="2" d="M 131.575 52.5425 C 131.575 52.5425 131.575 94.0745 131.575 105.715"></path><path style="-webkit-tap-highlight-color: rgba(0, 0, 0, 0);" fill="none" marker-end="url(&quot;#raphael-marker-endblock33&quot;)" stroke="#000000" stroke-width="2" d="M 131.575 164.085 C 131.575 164.085 131.575 205.661 131.575 217.314"></path><path style="-webkit-tap-highlight-color: rgba(0, 0, 0, 0);" fill="none" marker-end="url(&quot;#raphael-marker-endblock33&quot;)" stroke="#000000" stroke-width="2" d="M 131.575 275.568 C 131.575 275.568 131.575 324.965 131.575 337.749"></path><path style="-webkit-tap-highlight-color: rgba(0, 0, 0, 0);" fill="none" marker-end="url(&quot;#raphael-marker-endblock33&quot;)" stroke="#000000" stroke-width="2" d="M 131.575 378.11 C 131.575 378.11 131.575 419.408 131.575 431.023"></path><path style="-webkit-tap-highlight-color: rgba(0, 0, 0, 0);" fill="none" marker-end="url(&quot;#raphael-marker-endblock33&quot;)" stroke="#000000" stroke-width="2" d="M 131.575 489.905 C 131.575 489.905 131.575 529.559 131.575 540.905"></path><text font-size="15px" style="font: 15px &quot;Arial&quot;; font-size-adjust: none; font-stretch: normal; text-anchor: start; -webkit-tap-highlight-color: rgba(0, 0, 0, 0);" fill="#000000" stroke="none" text-anchor="start" x="136.575" y="499.905" font="10px &quot;Arial&quot;"><tspan style="-webkit-tap-highlight-color: rgba(0, 0, 0, 0);" dy="5.2">yes</tspan></text><path style="-webkit-tap-highlight-color: rgba(0, 0, 0, 0);" fill="none" marker-end="url(&quot;#raphael-marker-endblock33&quot;)" stroke="#000000" stroke-width="2" d="M 181.908 461.967 C 181.908 461.967 770.972 461.967 818.143 461.967"></path><text font-size="15px" style="font: 15px &quot;Arial&quot;; font-size-adjust: none; font-stretch: normal; text-anchor: start; -webkit-tap-highlight-color: rgba(0, 0, 0, 0);" fill="#000000" stroke="none" text-anchor="start" x="186.9075" y="451.9675" font="10px &quot;Arial&quot;"><tspan style="-webkit-tap-highlight-color: rgba(0, 0, 0, 0);" dy="5.2025">no</tspan></text><path style="-webkit-tap-highlight-color: rgba(0, 0, 0, 0);" fill="none" marker-end="url(&quot;#raphael-marker-endblock33&quot;)" stroke="#000000" stroke-width="2" d="M 191.29 573.763 C 191.29 573.763 610.449 573.763 650.155 573.763"></path><text font-size="15px" style="font: 15px &quot;Arial&quot;; font-size-adjust: none; font-stretch: normal; text-anchor: start; -webkit-tap-highlight-color: rgba(0, 0, 0, 0);" fill="#000000" stroke="none" text-anchor="start" x="196.29" y="563.7625" font="10px &quot;Arial&quot;"><tspan style="-webkit-tap-highlight-color: rgba(0, 0, 0, 0);" dy="5.2075">yes</tspan></text><path style="-webkit-tap-highlight-color: rgba(0, 0, 0, 0);" fill="none" marker-end="url(&quot;#raphael-marker-endblock33&quot;)" stroke="#000000" stroke-width="2" d="M 131.575 603.62 C 131.575 603.62 131.575 643.274 131.575 654.62"></path><text font-size="15px" style="font: 15px &quot;Arial&quot;; font-size-adjust: none; font-stretch: normal; text-anchor: start; -webkit-tap-highlight-color: rgba(0, 0, 0, 0);" fill="#000000" stroke="none" text-anchor="start" x="136.575" y="613.62" font="10px &quot;Arial&quot;"><tspan style="-webkit-tap-highlight-color: rgba(0, 0, 0, 0);" dy="5.205">no</tspan></text><path style="-webkit-tap-highlight-color: rgba(0, 0, 0, 0);" fill="none" marker-end="url(&quot;#raphael-marker-endblock33&quot;)" stroke="#000000" stroke-width="2" d="M 712.15 592.388 C 712.15 592.388 712.15 641.831 712.15 654.626"></path><path style="-webkit-tap-highlight-color: rgba(0, 0, 0, 0);" fill="none" marker-end="url(&quot;#raphael-marker-endblock33&quot;)" stroke="#000000" stroke-width="2" d="M 712.15 694.87 C 712.15 694.87 712.15 1076.25 712.15 1076.25 C 712.15 1076.25 131.575 1076.25 131.575 1076.25 C 131.575 1076.25 131.575 1091.62 131.575 1098.26"></path><path style="-webkit-tap-highlight-color: rgba(0, 0, 0, 0);" fill="none" marker-end="url(&quot;#raphael-marker-endblock33&quot;)" stroke="#000000" stroke-width="2" d="M 131.575 1138.5 C 131.575 1138.5 131.575 1187.9 131.575 1200.68"></path><path style="-webkit-tap-highlight-color: rgba(0, 0, 0, 0);" fill="none" marker-end="url(&quot;#raphael-marker-endblock33&quot;)" stroke="#000000" stroke-width="2" d="M 60.72 1222.35 C 60.72 1222.35 35.72 1222.35 35.72 1222.35 C 35.72 1222.35 35.72 409.03 35.72 409.03 C 35.72 409.03 131.575 409.03 131.575 409.03 C 131.575 409.03 131.575 424.403 131.575 431.039"></path><path style="-webkit-tap-highlight-color: rgba(0, 0, 0, 0);" fill="none" marker-end="url(&quot;#raphael-marker-endblock33&quot;)" stroke="#000000" stroke-width="2" d="M 191.29 687.477 C 191.29 687.477 448.868 687.477 479.682 687.477"></path><text font-size="15px" style="font: 15px &quot;Arial&quot;; font-size-adjust: none; font-stretch: normal; text-anchor: start; -webkit-tap-highlight-color: rgba(0, 0, 0, 0);" fill="#000000" stroke="none" text-anchor="start" x="196.29" y="677.4775" font="10px &quot;Arial&quot;"><tspan style="-webkit-tap-highlight-color: rgba(0, 0, 0, 0);" dy="5.2025">yes</tspan></text><path style="-webkit-tap-highlight-color: rgba(0, 0, 0, 0);" fill="none" marker-end="url(&quot;#raphael-marker-endblock33&quot;)" stroke="#000000" stroke-width="2" d="M 131.575 717.335 C 131.575 717.335 131.575 756.989 131.575 768.335"></path><text font-size="15px" style="font: 15px &quot;Arial&quot;; font-size-adjust: none; font-stretch: normal; text-anchor: start; -webkit-tap-highlight-color: rgba(0, 0, 0, 0);" fill="#000000" stroke="none" text-anchor="start" x="136.575" y="727.335" font="10px &quot;Arial&quot;"><tspan style="-webkit-tap-highlight-color: rgba(0, 0, 0, 0);" dy="5.2">no</tspan></text><path style="-webkit-tap-highlight-color: rgba(0, 0, 0, 0);" fill="none" marker-end="url(&quot;#raphael-marker-endblock33&quot;)" stroke="#000000" stroke-width="2" d="M 542.925 706.102 C 542.925 706.102 542.925 755.546 542.925 768.341"></path><path style="-webkit-tap-highlight-color: rgba(0, 0, 0, 0);" fill="none" marker-end="url(&quot;#raphael-marker-endblock33&quot;)" stroke="#000000" stroke-width="2" d="M 542.925 808.585 C 542.925 808.585 542.925 1076.25 542.925 1076.25 C 542.925 1076.25 131.575 1076.25 131.575 1076.25 C 131.575 1076.25 131.575 1091.62 131.575 1098.26"></path><path style="-webkit-tap-highlight-color: rgba(0, 0, 0, 0);" fill="none" marker-end="url(&quot;#raphael-marker-endblock33&quot;)" stroke="#000000" stroke-width="2" d="M 191.29 801.193 C 191.29 801.193 291.286 801.193 310.035 801.193"></path><text font-size="15px" style="font: 15px &quot;Arial&quot;; font-size-adjust: none; font-stretch: normal; text-anchor: start; -webkit-tap-highlight-color: rgba(0, 0, 0, 0);" fill="#000000" stroke="none" text-anchor="start" x="196.29" y="791.1925" font="10px &quot;Arial&quot;"><tspan style="-webkit-tap-highlight-color: rgba(0, 0, 0, 0);" dy="5.2075">yes</tspan></text><path style="-webkit-tap-highlight-color: rgba(0, 0, 0, 0);" fill="none" marker-end="url(&quot;#raphael-marker-endblock33&quot;)" stroke="#000000" stroke-width="2" d="M 131.575 831.05 C 131.575 831.05 131.575 880.493 131.575 893.289"></path><text font-size="15px" style="font: 15px &quot;Arial&quot;; font-size-adjust: none; font-stretch: normal; text-anchor: start; -webkit-tap-highlight-color: rgba(0, 0, 0, 0);" fill="#000000" stroke="none" text-anchor="start" x="136.575" y="841.05" font="10px &quot;Arial&quot;"><tspan style="-webkit-tap-highlight-color: rgba(0, 0, 0, 0);" dy="5.205">no</tspan></text><path style="-webkit-tap-highlight-color: rgba(0, 0, 0, 0);" fill="none" marker-end="url(&quot;#raphael-marker-endblock33&quot;)" stroke="#000000" stroke-width="2" d="M 372.865 819.818 C 372.865 819.818 372.865 869.261 372.865 882.056"></path><path style="-webkit-tap-highlight-color: rgba(0, 0, 0, 0);" fill="none" marker-end="url(&quot;#raphael-marker-endblock33&quot;)" stroke="#000000" stroke-width="2" d="M 372.865 922.3 C 372.865 922.3 372.865 1076.25 372.865 1076.25 C 372.865 1076.25 131.575 1076.25 131.575 1076.25 C 131.575 1076.25 131.575 1091.62 131.575 1098.26"></path><path style="-webkit-tap-highlight-color: rgba(0, 0, 0, 0);" fill="none" marker-end="url(&quot;#raphael-marker-endblock33&quot;)" stroke="#000000" stroke-width="2" d="M 131.575 933.532 C 131.575 933.532 131.575 982.976 131.575 995.771"></path><path style="-webkit-tap-highlight-color: rgba(0, 0, 0, 0);" fill="none" marker-end="url(&quot;#raphael-marker-endblock33&quot;)" stroke="#000000" stroke-width="2" d="M 131.575 1036.02 C 131.575 1036.02 131.575 1085.46 131.575 1098.25"></path><path style="-webkit-tap-highlight-color: rgba(0, 0, 0, 0);" fill="none" marker-end="url(&quot;#raphael-marker-endblock33&quot;)" stroke="#000000" stroke-width="2" d="M 911.195 489.592 C 911.195 489.592 911.195 538.99 911.195 551.774"></path></svg>